HIERARCHY
ROOT Hips
{
	OFFSET 0.000000 0.000000 0.000000
	CHANNELS 6 Xposition Yposition Zposition Zrotation Yrotation Xrotation 
	JOINT LHipJoint
	{
		OFFSET 0.000000 0.000000 0.000000
		CHANNELS 3 Zrotation Yrotation Xrotation
		JOINT LeftUpLeg
		{
			OFFSET 1.363060 -1.794630 0.839290
			CHANNELS 3 Zrotation Yrotation Xrotation
			JOINT LeftLeg
			{
				OFFSET 2.448110 -6.726130 0.000000
				CHANNELS 3 Zrotation Yrotation Xrotation
				JOINT LeftFoot
				{
					OFFSET 2.562200 -7.039590 0.000000
					CHANNELS 3 Zrotation Yrotation Xrotation
					JOINT LeftToeBase
					{
						OFFSET 0.157640 -0.433110 2.322550
						CHANNELS 3 Zrotation Yrotation Xrotation
						End Site
						{
							OFFSET 0.000000 0.000000 0.000000
						}
					}
				}
			}
		}
	}
	JOINT RHipJoint
	{
		OFFSET 0.000000 0.000000 0.000000
		CHANNELS 3 Zrotation Yrotation Xrotation
		JOINT RightUpLeg
		{
			OFFSET -1.305520 -1.794630 0.839290
			CHANNELS 3 Zrotation Yrotation Xrotation
			JOINT RightLeg
			{
				OFFSET -2.542530 -6.985550 0.000000
				CHANNELS 3 Zrotation Yrotation Xrotation
				JOINT RightFoot
				{
					OFFSET -2.568260 -7.056230 0.000000
					CHANNELS 3 Zrotation Yrotation Xrotation
					JOINT RightToeBase
					{
						OFFSET -0.164730 -0.452590 2.363150
						CHANNELS 3 Zrotation Yrotation Xrotation
						End Site
						{
							OFFSET 0.000000 0.000000 0.000000
						}
					}
				}
			}
		}
	}
	JOINT LowerBack
	{
		OFFSET 0.000000 0.000000 0.000000
		CHANNELS 3 Zrotation Yrotation Xrotation
		JOINT Spine
		{
			OFFSET 0.028270 2.035590 -0.193380
			CHANNELS 3 Zrotation Yrotation Xrotation
			JOINT Spine1
			{
				OFFSET 0.056720 2.048850 -0.042750
				CHANNELS 3 Zrotation Yrotation Xrotation
				JOINT Neck
				{
					OFFSET 0.000000 0.000000 0.000000
					CHANNELS 3 Zrotation Yrotation Xrotation
					JOINT Neck1
					{
						OFFSET -0.054170 1.746240 0.172020
						CHANNELS 3 Zrotation Yrotation Xrotation
						JOINT Head
						{
							OFFSET 0.104070 1.761360 -0.123970
							CHANNELS 3 Zrotation Yrotation Xrotation
							End Site
							{
								OFFSET 0.000000 0.000000 0.000000
							}
						}
					}
				}
				JOINT LeftShoulder
				{
					OFFSET 0.000000 0.000000 0.000000
					CHANNELS 3 Zrotation Yrotation Xrotation
					JOINT LeftArm
					{
						OFFSET 3.362410 1.200890 -0.311210
						CHANNELS 3 Zrotation Yrotation Xrotation
						JOINT LeftForeArm
						{
							OFFSET 4.983000 -0.000000 -0.000000
							CHANNELS 3 Zrotation Yrotation Xrotation
							JOINT LeftHand
							{
								OFFSET 3.483560 -0.000000 -0.000000
								CHANNELS 3 Zrotation Yrotation Xrotation
								JOINT LeftFingerBase
								{
									OFFSET 0.000000 0.000000 0.000000
									CHANNELS 3 Zrotation Yrotation Xrotation
									JOINT LeftHandIndex1
									{
										OFFSET 0.715260 -0.000000 -0.000000
										CHANNELS 3 Zrotation Yrotation Xrotation
										End Site
										{
											OFFSET 0.000000 0.000000 0.000000
										}
									}
								}
								JOINT LThumb
								{
									OFFSET 0.000000 0.000000 0.000000
									CHANNELS 3 Zrotation Yrotation Xrotation
									End Site
									{
										OFFSET 0.000000 0.000000 0.000000
									}
								}
							}
						}
					}
				}
				JOINT RightShoulder
				{
					OFFSET 0.000000 0.000000 0.000000
					CHANNELS 3 Zrotation Yrotation Xrotation
					JOINT RightArm
					{
						OFFSET -3.136600 1.374050 -0.404650
						CHANNELS 3 Zrotation Yrotation Xrotation
						JOINT RightForeArm
						{
							OFFSET -5.241900 -0.000000 -0.000000
							CHANNELS 3 Zrotation Yrotation Xrotation
							JOINT RightHand
							{
								OFFSET -3.444170 -0.000000 -0.000000
								CHANNELS 3 Zrotation Yrotation Xrotation
								JOINT RightFingerBase
								{
									OFFSET 0.000000 0.000000 0.000000
									CHANNELS 3 Zrotation Yrotation Xrotation
									JOINT RightHandIndex1
									{
										OFFSET -0.622530 -0.000000 -0.000000
										CHANNELS 3 Zrotation Yrotation Xrotation
										End Site
										{
											OFFSET 0.000000 0.000000 0.000000
										}
									}
								}
								JOINT RThumb
								{
									OFFSET 0.000000 0.000000 0.000000
									CHANNELS 3 Zrotation Yrotation Xrotation
									End Site
									{
										OFFSET 0.000000 0.000000 0.000000
									}
								}
							}
						}
					}
				}
			}
		}
	}
}
MOTION
Frames: 8
Frame Time: 0.008333
11.600914 17.882533 -20.422730 173.045603 -13.613185 -178.327811 -2.796257 2.175046 3.582349 -23.579937 -7.867142 7.931195 -0.446574 4.989311 16.601341 0.745804 -16.342966 7.599005 0.036600 -1.235300 -3.396400 1.010892 -1.133306 0.325286 8.536777 4.578861 -25.544243 -1.000023 -8.128344 21.665016 4.034652 -21.411622 6.617285 -1.511800 -7.765100 22.002900 -4.603536 -1.322446 8.900343 0.793916 -2.315453 2.289672 1.363228 -1.381469 -2.134130 -7.615546 15.039676 -12.337388 3.852095 19.110946 34.163865 5.391400 4.644600 17.593100 -6.193489 -2.750274 -0.986897 -87.378774 -12.527000 34.099226 18.084184 -24.618472 -4.897174 -1.258085 -2.382357 4.835859 19.225993 22.497083 8.869600 -7.125000 0.000000 0.000000 -10.096100 56.084400 -2.765000 5.374675 0.768375 -1.427986 84.361024 -9.511987 9.387288 -16.880540 24.866691 -3.958097 0.413905 -0.086824 4.944020 -15.852262 7.399918 -2.163800 7.125000 0.000000 0.000000 7.679900 -22.258300 4.235800 
11.582668 17.885441 -20.317465 173.213900 -13.498447 -178.419314 -2.819496 2.157505 3.565424 -23.524552 -7.900953 7.658129 -0.444399 5.013699 16.652411 0.763545 -16.351520 7.205313 0.041500 -1.315000 -3.616000 1.030270 -1.125293 0.336544 8.656958 4.554258 -25.419881 -0.904569 -7.978588 21.261563 4.338134 -21.938079 4.638981 -1.328100 -7.298000 20.601200 -4.487172 -1.130248 8.963313 0.831864 -2.050127 2.269263 1.340629 -1.240414 -2.240844 -7.464780 15.122751 -12.237888 3.966121 19.112914 34.508747 5.420100 4.619900 17.787800 -6.194835 -2.735941 -0.997932 -87.418268 -12.160342 34.250249 18.042870 -24.576206 -4.879978 -1.263224 -2.369518 4.711906 19.355704 22.274063 8.857300 -7.125000 0.000000 0.000000 -9.840700 55.872200 -2.643300 5.385720 0.761028 -1.424776 84.262851 -9.298893 9.064638 -16.860636 24.837396 -3.947962 0.407578 -0.074914 4.880358 -15.632425 7.089713 -2.040700 7.125000 0.000000 0.000000 7.855400 -22.597700 4.272900 
11.564523 17.880528 -20.212701 173.381775 -13.316515 -178.414164 -2.848371 2.129211 3.540841 -23.449736 -7.807844 7.204981 -0.439159 5.043805 16.718863 0.786116 -16.429477 6.730244 0.059400 -1.572200 -4.324900 1.042796 -1.105460 0.329033 8.775744 4.567771 -25.536336 -0.845988 -7.908935 21.077149 4.694090 -22.775417 2.693692 -1.057000 -6.537100 18.351000 -4.370973 -0.877257 8.804682 0.910388 -1.692179 2.388849 1.376374 -1.078427 -1.969422 -7.676795 15.020501 -12.644126 4.099027 19.097027 34.698762 5.562100 4.569700 17.970900 -6.200838 -2.733145 -0.995639 -87.570362 -12.272831 34.511850 17.937140 -24.429387 -4.823089 -1.284017 -2.341827 4.680169 19.583873 21.904734 8.841700 -7.125000 0.000000 0.000000 -9.402700 55.519900 -2.443500 5.414289 0.767361 -1.406181 83.989458 -8.563360 8.664890 -16.737295 24.677992 -3.888314 0.409994 -0.086243 4.810893 -15.685524 7.373640 -2.132600 7.125000 0.000000 0.000000 7.805100 -22.291500 4.300100 
11.545274 17.881130 -20.106534 173.371492 -13.216202 -178.289017 -2.874608 2.095776 3.510551 -23.534925 -7.623764 6.776481 -0.462732 4.982718 16.534978 0.795452 -16.453499 6.536884 0.074100 -1.756000 -4.831700 1.040039 -1.073809 0.316899 8.890928 3.941485 -26.016449 -0.826723 -7.920650 21.123834 4.835803 -22.965745 1.305898 -0.633200 -5.091400 14.169500 -4.388924 -0.609302 8.556801 0.990043 -1.325504 2.577646 1.485061 -0.929088 -1.521021 -8.375811 14.705017 -13.356527 4.380422 18.994363 34.713909 5.866700 4.466300 18.044900 -6.211648 -2.721975 -0.991238 -87.881866 -12.656890 34.725287 17.835608 -24.270965 -4.763350 -1.316598 -2.324735 4.814171 19.852561 21.727974 8.913400 -7.125000 0.000000 0.000000 -9.012200 55.385600 -2.311300 5.430934 0.796301 -1.384953 83.677074 -7.848493 8.282767 -16.879500 24.885523 -3.951031 0.422238 -0.112375 4.679960 -16.112031 8.171430 -2.435800 7.125000 0.000000 0.000000 7.463700 -21.423900 4.257300 
11.520512 17.894764 -20.008287 173.490441 -13.140761 -178.257481 -2.889176 2.065325 3.488489 -23.508600 -7.343018 6.333935 -0.465244 4.975346 16.511094 0.804985 -16.499611 6.388921 0.084200 -1.871800 -5.151500 1.039764 -1.048363 0.323486 9.281117 2.755530 -26.493371 -0.806732 -7.915263 21.142994 4.712945 -22.297014 0.570803 -0.354500 -3.825300 10.585700 -4.214219 -0.445287 8.396782 1.004820 -1.081028 2.633088 1.385566 -0.811745 -1.365496 -8.678481 14.533493 -13.519368 4.462252 18.896668 34.571198 5.958100 4.426500 17.947900 -6.220957 -2.699449 -0.994798 -87.852704 -12.560540 34.974638 17.725938 -24.135712 -4.705956 -1.363630 -2.322964 4.324821 20.534475 21.616527 9.213700 -7.125000 0.000000 0.000000 -8.177800 55.409300 -2.099800 5.422118 0.804946 -1.380902 83.639681 -7.717863 8.178527 -17.219545 25.351858 -4.110626 0.429235 -0.115822 4.518768 -16.385112 8.427855 -2.557000 7.125000 0.000000 0.000000 7.256200 -21.141600 4.183700 
11.499058 17.922634 -19.917558 173.661804 -12.851118 -178.465714 -2.885620 2.050746 3.487028 -23.462105 -6.899214 6.145765 -0.475617 4.927124 16.385784 0.805501 -16.406984 6.421867 0.076800 -1.787200 -4.918000 1.039150 -1.037255 0.342404 9.735775 1.802946 -26.628594 -0.820807 -7.982155 21.411978 4.458164 -21.136458 -0.134646 -0.267800 -3.329000 9.196100 -4.084338 -0.256176 8.436043 0.979668 -0.823656 2.640310 1.238070 -0.673952 -1.427502 -8.368886 14.605720 -13.119965 4.254940 18.876541 34.430198 5.770200 4.473200 17.809400 -6.231602 -2.693513 -0.989735 -87.511605 -12.211448 35.232986 17.509631 -23.878259 -4.597361 -1.394623 -2.286685 3.582187 21.101192 20.992958 9.256000 -7.125000 0.000000 0.000000 -7.253400 54.836400 -1.759300 5.415998 0.786678 -1.383775 83.701985 -7.793972 8.221862 -17.523553 25.759372 -4.258146 0.424336 -0.100030 4.331660 -16.260548 8.160693 -2.452800 7.125000 0.000000 0.000000 7.356200 -21.438300 4.192600 
11.484421 17.916619 -19.823622 173.794471 -12.586710 -178.640959 -2.884953 2.034981 3.485702 -23.435067 -6.538030 5.928648 -0.483859 4.888967 16.288662 0.805391 -16.344897 6.470271 0.050200 -1.445400 -3.975200 1.034825 -1.030121 0.339619 10.019721 1.316092 -26.931904 -0.863808 -8.080693 21.707491 4.373503 -20.831966 -0.039712 -0.303300 -3.540700 9.788000 -4.048123 -0.070555 8.501064 0.948073 -0.582998 2.635740 1.134311 -0.543159 -1.509164 -7.912204 14.740985 -12.835443 4.085087 18.897470 34.510666 5.600900 4.517600 17.862000 -6.230960 -2.691062 -0.987888 -87.164180 -11.805629 35.232718 17.382169 -23.742614 -4.536289 -1.386448 -2.293502 3.557205 20.950173 21.092750 9.222900 -7.125000 0.000000 0.000000 -7.458800 54.913700 -1.823600 5.411247 0.761022 -1.389014 83.750153 -7.842473 8.436218 -17.837475 26.168691 -4.409388 0.430164 -0.084811 4.045636 -16.442345 7.894508 -2.397800 7.125000 0.000000 0.000000 7.227500 -21.718800 4.071700 
11.469183 17.920529 -19.724773 173.831002 -12.427886 -178.728300 -2.890681 2.010444 3.469394 -23.525184 -6.367690 5.651688 -0.483355 4.890443 16.294886 0.809453 -16.257369 6.374740 0.023100 -0.980700 -2.695600 1.028998 -1.020058 0.348667 10.245725 0.528619 -27.329066 -0.916609 -8.204816 22.091768 4.224681 -20.226315 -0.132858 -0.147800 -2.477100 6.826100 -4.056353 0.059108 8.665651 0.885249 -0.424293 2.546990 1.015448 -0.442945 -1.771513 -7.641747 14.866260 -12.692417 4.169914 18.940030 34.655117 5.597700 4.559900 17.940600 -6.223671 -2.663261 -1.006724 -86.834044 -11.138158 34.984149 17.399988 -23.809765 -4.552994 -1.342669 -2.347612 3.866647 20.314015 21.835025 9.191500 -7.125000 0.000000 0.000000 -8.507200 55.600100 -2.224800 5.392513 0.744105 -1.399958 83.849284 -8.074913 8.743500 -18.123024 26.532744 -4.545266 0.449496 -0.090060 4.262168 -17.148182 7.969384 -2.531100 7.125000 0.000000 0.000000 6.700100 -21.605000 3.787800 
